<svg width="55" height="75" viewBox="0 0 55 75" fill="none" xmlns="http://www.w3.org/2000/svg">
<path fill-rule="evenodd" clip-rule="evenodd" d="M33.9332 0.922805C32.8923 1.08823 30.838 1.3616 29.3678 1.53068C27.8975 1.69942 26.5976 1.91434 26.4791 2.00801C26.3605 2.10168 26.5707 2.42123 26.9471 2.71819C27.6646 3.28521 30.1483 3.12809 30.1483 2.5159C30.1483 2.10766 31.7127 2.12261 32.034 2.53384C32.2645 2.82814 34.0072 2.77101 37.5532 2.35214C38.6828 2.21861 38.8329 2.08574 38.6605 1.37323C38.438 0.453446 37.4678 0.36077 33.9332 0.922805ZM39.0445 1.02678C39.1248 1.33138 39.3792 1.57287 39.6105 1.56323C40.2346 1.53699 40.1202 0.793922 39.465 0.621525C39.1113 0.528517 38.954 0.68032 39.0445 1.02678ZM10.8033 1.21346C10.8033 1.39615 10.3773 1.54795 9.85709 1.55061C9.10053 1.55493 9.0366 1.61871 9.53831 1.86916C9.93278 2.06614 10.3151 2.06415 10.5686 1.86385C11.2621 1.3161 12.4838 1.51407 13.5343 2.34384C14.7043 3.26794 15.2064 2.77566 14.2644 1.62867C13.827 1.0962 13.2408 0.881284 12.2268 0.881284C11.4438 0.881284 10.8033 1.03076 10.8033 1.21346ZM7.32668 2.25116C7.61223 2.47837 7.9516 2.58034 8.08071 2.47803C8.21024 2.37573 7.97684 2.19004 7.56218 2.06514C6.96291 1.88511 6.91455 1.92297 7.32668 2.25116ZM11.2239 2.32025C11.2239 2.87631 12.0864 3.53866 12.8106 3.53866C13.7177 3.53866 13.221 2.48169 12.1701 2.17509C11.5027 1.98044 11.2239 2.02329 11.2239 2.32025ZM9.12113 2.83877C9.12113 3.1447 10.1166 3.53866 10.8891 3.53866C11.154 3.53866 11.1204 3.34201 10.8033 3.0404C10.2318 2.49664 9.12113 2.36343 9.12113 2.83877ZM30.4082 3.59181C30.0844 4.87133 30.2425 5.02878 31.3738 4.55046C32.3591 4.13391 32.4979 3.53434 31.7464 2.94075C30.9654 2.32391 30.6958 2.45511 30.4082 3.59181ZM19.2142 3.20649C18.8672 3.38354 18.1342 3.53069 17.5858 3.53368C16.7468 3.538 16.6711 3.61805 17.1115 4.03692C17.3995 4.31096 18.2604 4.53518 19.0245 4.53518C19.9943 4.53518 20.4724 4.71089 20.6066 5.11648C20.7513 5.55395 20.811 5.51276 20.8476 4.95039C20.8846 4.38503 21.152 4.203 21.9477 4.203C22.7186 4.203 22.9991 4.02596 22.9991 3.53866C22.9991 2.99157 22.7207 2.87531 21.422 2.8793C20.5549 2.88229 19.5611 3.02944 19.2142 3.20649ZM24.2081 4.38537C23.3199 5.97182 22.9902 7.47623 23.5247 7.50679C23.698 7.51675 23.8267 7.44102 23.8107 7.33871C23.7943 7.2364 24.6303 6.36777 25.6678 5.40812C27.4429 3.76719 27.5073 3.6403 26.7545 3.26894C25.4626 2.63183 25.1018 2.78994 24.2081 4.38537ZM16.0908 4.71521C17.3785 7.16365 17.5795 7.37525 18.0211 6.75176C18.4862 6.09539 18.0421 5.35332 16.5042 4.21695L15.399 3.40048L16.0908 4.71521ZM13.3329 4.08409C13.3295 4.29236 12.816 4.56441 12.1919 4.68797C11.3883 4.84742 11.218 4.99125 11.6078 5.18158C12.1818 5.46194 13.6319 5.28323 13.9364 4.89459C14.0331 4.77069 13.9385 4.45246 13.7257 4.18706C13.5099 3.91767 13.3367 3.87216 13.3329 4.08409ZM8.06978 4.36909C7.83848 4.43187 6.75011 4.57869 5.65165 4.69561C4.5532 4.81254 3.65407 5.02015 3.65407 5.15733C3.65407 5.43304 9.43192 4.73249 9.84405 4.40696C10.1111 4.19603 8.81246 4.16846 8.06978 4.36909ZM7.64923 5.34136C6.14916 5.55727 5.33372 5.80906 5.63778 5.96318C6.23999 6.26745 10.3066 5.89741 10.6094 5.51076C10.9921 5.02181 10.1906 4.97597 7.64923 5.34136ZM15.8797 6.36212C15.8797 6.54482 16.1501 7.06799 16.4806 7.52472C16.8112 7.98146 17.0816 8.20568 17.0816 8.02298C17.0816 7.84029 16.8112 7.31712 16.4806 6.86038C16.1501 6.40364 15.8797 6.17943 15.8797 6.36212ZM19.845 6.52821C19.988 6.7109 20.2828 6.86038 20.5006 6.86038C20.7185 6.86038 20.8963 6.7109 20.8963 6.52821C20.8963 6.34551 20.6011 6.19604 20.2407 6.19604C19.8803 6.19604 19.702 6.34551 19.845 6.52821ZM21.5402 6.95771C21.3602 7.28523 21.3312 7.64663 21.475 7.76057C21.9023 8.09772 22.2467 7.62404 22.0499 6.96933C21.8758 6.38903 21.8531 6.38869 21.5402 6.95771ZM18.7936 7.99541C18.7936 8.25417 18.9946 8.51891 19.2402 8.58336C19.5477 8.66441 19.5561 8.97366 19.2676 9.57323C18.8929 10.3515 18.9572 10.4615 19.8685 10.599C20.7395 10.7305 20.9485 10.5837 21.2933 9.59781C21.5999 8.72054 21.5574 8.33157 21.1167 7.98345C20.358 7.38421 18.7936 7.39219 18.7936 7.99541ZM22.5659 8.87168C22.3115 9.24737 22.1655 9.70211 22.2421 9.88281C22.3182 10.0632 22.5979 9.75592 22.8636 9.19987C23.4158 8.04358 23.2505 7.86121 22.5659 8.87168ZM19.1818 11.1059C19.1641 11.2374 19.0716 11.5689 18.9761 11.843C18.6855 12.676 13.9692 35.9836 13.634 38.2423C13.5028 39.1269 14.8296 39.3016 15.3906 38.4738C15.8675 37.7703 20.4758 14.0672 20.4758 12.319C20.4758 11.6749 20.2247 11.1736 19.845 11.0584C19.498 10.9534 19.1999 10.9747 19.1818 11.1059ZM13.2626 39.8284C13.155 40.526 13.0456 40.8864 12.7849 41.4063C12.3648 42.244 11.559 45.768 11.7529 45.9208C11.853 45.9999 12.6739 46.1002 13.5768 46.1437L15.219 46.2228L15.0853 45.0077C15.0121 44.3393 15.1542 42.9283 15.4015 41.872C15.7502 40.3815 15.7329 39.8922 15.3246 39.6873C14.5184 39.283 13.3341 39.3641 13.2626 39.8284ZM16.7203 39.6428C16.7368 39.7906 16.9125 40.2104 17.1115 40.5758C17.4601 41.2163 17.474 41.2139 17.5026 40.5124C17.5185 40.1121 17.3428 39.6923 17.1115 39.5793C16.8802 39.4664 16.7044 39.4949 16.7203 39.6428ZM16.7574 42.735C16.7574 43.1917 16.8528 43.3787 16.9693 43.1502C17.0862 42.922 17.0862 42.5483 16.9693 42.3197C16.8528 42.0915 16.7574 42.2782 16.7574 42.735ZM15.8793 43.961C15.8957 44.1088 16.0715 44.5287 16.2704 44.8941C16.619 45.5345 16.6329 45.5322 16.6615 44.8306C16.6775 44.4304 16.5017 44.0105 16.2704 43.8976C16.0391 43.7846 15.8633 43.8132 15.8793 43.961ZM10.4681 45.0117C10.0299 45.2309 10.0459 45.3661 10.5493 45.6959C11.0725 46.0387 11.1654 45.9926 11.1107 45.4176C11.0746 45.0382 11.038 44.7303 11.0291 44.733C11.0207 44.736 10.768 44.8612 10.4681 45.0117ZM15.8002 46.638C15.7724 46.9579 15.7914 47.4428 15.8423 47.7162C15.9159 48.1138 15.7682 48.0942 15.1029 47.6189C14.6458 47.292 13.5389 46.9525 12.6428 46.8642C11.3096 46.733 11.1856 46.7639 11.9598 47.0339C13.5061 47.5734 13.0671 49.3784 11.3891 49.3784C10.8357 49.3784 10.3828 49.5093 10.3828 49.669C10.3828 49.9942 12.4131 50.3749 14.1483 50.3749C15.1412 50.3749 15.6715 50.8576 18.3235 54.1779C20.4489 56.839 21.5436 57.9252 21.9696 57.7963C22.3047 57.6946 22.5785 57.5375 22.5785 57.4472C22.5785 57.3565 21.0902 55.3173 19.2714 52.9154C16.3616 49.0725 15.9882 48.3985 16.1636 47.3023C16.2729 46.6174 16.2472 46.0567 16.1059 46.0567C15.9651 46.0567 15.8275 46.3181 15.8002 46.638ZM11.072 47.6159C10.5522 48.0265 10.8105 49.0462 11.4341 49.0462C11.7811 49.0462 12.0649 48.7562 12.0649 48.4015C12.0649 47.7082 11.5107 47.2694 11.072 47.6159ZM6.59788 50.8732C6.59788 51.2053 7.01842 51.3714 7.85951 51.3714C8.70059 51.3714 9.12113 51.2053 9.12113 50.8732C9.12113 50.541 8.70059 50.3749 7.85951 50.3749C7.01842 50.3749 6.59788 50.541 6.59788 50.8732ZM9.80704 50.9688C9.44958 51.4259 10.5283 51.7036 12.66 51.7036C13.9692 51.7036 14.4482 51.5701 14.4482 51.2053C14.4482 50.839 13.9654 50.7071 12.6255 50.7071C11.4518 50.7071 10.8012 50.8549 10.797 51.1223C10.792 51.4279 10.6948 51.4186 10.429 51.0868C10.2066 50.8097 9.96727 50.7642 9.80704 50.9688ZM12.6571 53.1485C14.3851 54.9735 15.1378 56.3849 14.6063 56.8048C14.2551 57.0821 14.0301 57.0509 13.7362 56.6835C13.5171 56.4098 13.3367 56.359 13.3329 56.5702C13.3274 56.8918 15.9251 58.347 16.5046 58.347C17.609 58.347 13.7719 52.5373 12.4935 52.2733C11.7247 52.1145 11.7365 52.1766 12.6571 53.1485ZM14.8805 52.2683C14.4629 52.3537 14.1803 52.5234 14.253 52.645C14.3254 52.7665 15.0928 53.9461 15.9583 55.2661C16.8238 56.5862 17.532 58.0434 17.532 58.5048C17.532 59.5143 17.9824 59.5817 18.6961 58.6792C18.985 58.3138 19.5035 58.0149 19.8484 58.0149C20.1936 58.0149 20.4758 57.9451 20.4758 57.8601C20.4758 57.6714 15.8288 52.0202 15.7182 52.0743C15.6749 52.0956 15.2981 52.1829 14.8805 52.2683ZM47.4835 52.8855C46.9688 53.1701 46.372 53.317 46.1571 53.2123C45.9422 53.1074 45.6478 53.1735 45.5023 53.3591C45.3358 53.5721 46.0839 53.6966 47.5268 53.6966C49.4622 53.6966 49.8499 53.7993 50.0358 54.361C50.2566 55.0286 51.596 55.314 51.596 54.6931C51.596 54.5104 51.8799 54.361 52.2268 54.361C53.4468 54.361 52.8383 53.6574 51.0703 53.0233C48.8906 52.2417 48.6627 52.2331 47.4835 52.8855ZM37.0873 53.6996C33.6888 53.877 22.7863 55.2376 22.229 55.5538C22.012 55.6767 22.9208 56.9091 23.6572 57.4907C24.9542 58.5151 28.9291 58.1075 41.9235 55.6176L49.283 54.2075L45.9187 54.0026C44.0683 53.8896 42.2704 53.7259 41.9235 53.6388C41.5766 53.5515 39.4002 53.579 37.0873 53.6996ZM53.2782 54.8489C53.2782 55.1459 53.0317 55.2618 52.6474 55.1456C52.3004 55.0403 52.0165 55.1296 52.0165 55.3442C52.0165 55.5714 51.6944 55.6538 51.2457 55.5412C50.7553 55.4183 50.4744 55.5126 50.4744 55.8009C50.4744 56.2334 52.4139 56.2776 53.2605 55.8644C53.7647 55.6182 54.0982 54.361 53.6592 54.361C53.4498 54.361 53.2782 54.5805 53.2782 54.8489ZM48.2316 55.0456C47.6534 55.1844 43.9964 55.866 40.1047 56.5596C34.4269 57.5717 33.1598 57.8966 33.6914 58.2039C34.0556 58.4141 34.3537 58.6895 34.3537 58.8157C34.3537 59.2276 31.4726 60.0079 29.9515 60.0079C28.8303 60.0079 28.4577 60.1504 28.4321 60.5892C28.4131 60.9091 28.3593 61.585 28.3126 62.0919C28.2626 62.6321 28.4131 62.9572 28.6764 62.8772C28.9237 62.8025 32.7014 61.969 37.0713 61.0253C41.4411 60.082 45.1814 59.2296 45.3829 59.131C45.5843 59.0326 45.5297 58.7433 45.2614 58.4879C44.4295 57.6963 45.1377 57.1001 47.5731 56.5407C48.8604 56.245 49.9109 55.8953 49.9075 55.7634C49.8899 55.104 49.2065 54.8111 48.2316 55.0456ZM53.7252 56.5835C53.7109 56.9838 53.5246 57.3964 53.3122 57.5C53.0935 57.6066 53.2025 58.1261 53.5633 58.6978C54.1083 59.5611 54.1209 59.9202 53.6482 61.1838C52.9708 62.9961 51.4114 64.4012 50.2322 64.262C49.0092 64.1179 47.7901 62.6805 47.5146 61.0586C47.2497 59.4973 47.3737 59.5372 44.4304 60.0737L42.2465 60.4719L42.4975 62.1451C42.8012 64.1687 43.8319 65.3549 45.7479 65.8853C49.2002 66.8407 52.1074 66.0534 53.5069 63.784C54.4241 62.2969 54.8346 57.9617 54.179 56.6862C53.7757 55.9013 53.7504 55.8956 53.7252 56.5835ZM50.3482 57.1927C49.135 57.4914 48.378 57.5379 48.2106 57.3239C47.8965 56.922 45.7084 57.5017 45.7084 57.987C45.7084 58.6835 46.5772 58.6251 49.9626 57.6996C53.525 56.7264 53.8198 56.3387 50.3482 57.1927ZM8.70059 57.3558C9.27884 57.5123 10.887 57.8179 12.2739 58.0345C14.2497 58.3427 15.0924 58.6765 16.164 59.5737C16.9163 60.2039 17.532 60.5527 17.532 60.3487C17.532 59.7279 15.5273 58.3497 13.6395 57.6727C12.599 57.2997 10.9778 57.0409 9.75195 57.0519C8.02856 57.0675 7.8389 57.1223 8.70059 57.3558ZM51.6036 58.1059C52.2626 58.8347 51.8386 59.2519 50.9984 58.7011C50.6586 58.4782 49.9445 58.345 49.4113 58.4045C48.5454 58.5015 48.6518 58.6281 50.4101 59.5927C51.4925 60.1863 52.5809 60.6722 52.8282 60.6722C53.6638 60.6722 53.2857 59.3871 52.1742 58.4487C51.5674 57.9361 51.3104 57.7817 51.6036 58.1059ZM6.97006 58.4826C4.54899 59.1509 3.0712 60.1617 1.74018 62.0594C0.606819 63.6754 0.5 64.1049 0.5 67.038C0.5 70.0697 0.570231 70.3265 1.76163 71.6588C3.43245 73.5273 5.69076 74.4159 9.12113 74.5547C13.2223 74.7208 15.2177 73.81 16.9765 70.9696C17.7116 69.7821 18.4172 68.1378 18.5442 67.3157L18.7755 65.8209L17.5396 66.9835C16.86 67.6229 15.8582 68.8188 15.3141 69.6409C14.0587 71.5369 11.8336 72.5959 10.1111 72.1176C7.04996 71.2672 6.02131 67.1941 8.01384 63.8139C9.71957 60.9207 12.3766 60.2029 14.6719 62.0159C15.3759 62.5723 15.9958 62.9832 16.0492 62.9293C16.1026 62.8755 16.3482 62.5351 16.595 62.173C18.0976 59.9684 11.1868 57.3183 6.97006 58.4826ZM19.2323 58.828C18.9543 59.0928 18.4105 59.9929 18.024 60.8284C17.1867 62.6397 14.6424 65.2924 13.7261 65.31C12.795 65.328 12.0649 66.0019 12.0649 66.8433C12.0649 67.9674 12.9355 68.3441 14.6631 67.9671C15.7952 67.7203 16.5765 67.1659 17.9122 65.6618C18.8794 64.5726 20.0502 63.0044 20.5136 62.1766C20.9771 61.3492 21.5162 60.6722 21.7122 60.6722C22.3321 60.6722 22.5924 59.6525 22.1416 58.9875C21.631 58.2334 19.9535 58.1418 19.2323 58.828ZM22.5785 58.4743C22.5785 58.5918 22.8132 58.9851 23.1 59.3479C23.5508 59.9179 23.4696 60.1192 22.502 60.8277C21.4065 61.6299 20.6209 62.8908 21.02 63.2057C21.1302 63.2931 22.6614 63.2612 24.4226 63.135L27.625 62.9058L27.6747 61.706C27.7024 61.0459 27.6869 60.358 27.641 60.177C27.5952 59.9959 27.5325 59.585 27.5018 59.2635C27.4682 58.9127 27.1036 58.6779 26.5892 58.6756C26.1182 58.6736 25.0231 58.5792 24.1556 58.466C23.2884 58.3527 22.5785 58.3563 22.5785 58.4743ZM30.5688 59.1971C30.5688 59.4817 30.7581 59.6226 30.9894 59.5096C31.2207 59.3967 31.4099 59.1638 31.4099 58.9918C31.4099 58.8197 31.2207 58.6792 30.9894 58.6792C30.7581 58.6792 30.5688 58.9124 30.5688 59.1971ZM48.2316 60.3245C48.2316 62.5653 49.9479 63.7621 51.0901 62.3178C51.5649 61.7172 51.4677 61.504 50.2574 60.4909C48.5836 59.0888 48.2316 59.0599 48.2316 60.3245ZM10.474 62.8516C9.01516 63.6585 8.21991 65.2047 8.21991 67.234C8.21991 70.6195 10.8841 72.0382 13.3409 69.9611C14.7985 68.7284 14.9192 68.3059 13.745 68.5487C12.5322 68.7992 11.6444 68.067 11.6444 66.8174C11.6444 65.6674 12.1764 65.138 13.5322 64.9393C14.6916 64.7692 14.809 63.8362 13.7728 63.0177C12.7374 62.1999 11.7428 62.1497 10.474 62.8516Z" fill="#D3AD7F"/>
</svg>
